<svg width="40" height="40" viewBox="0 0 40 40" fill="none" xmlns="http://www.w3.org/2000/svg">
<path d="M20.4067 6.66667C21.2967 6.67167 23.5234 6.69334 25.89 6.78834L26.73 6.825C29.1117 6.93667 31.4917 7.13 32.6734 7.45834C34.2484 7.90167 35.485 9.19167 35.9034 10.8283C36.57 13.4283 36.6534 18.4983 36.6634 19.7267L36.665 19.98V20.27C36.6534 21.4983 36.57 26.57 35.9034 29.1683C35.48 30.81 34.2417 32.1017 32.6734 32.5383C31.4917 32.8667 29.1117 33.06 26.73 33.1717L25.89 33.21C23.5234 33.3033 21.2967 33.3267 20.4067 33.33L20.015 33.3317H19.59C17.7067 33.32 9.83004 33.235 7.32337 32.5383C5.75004 32.095 4.51171 30.805 4.09337 29.1683C3.42671 26.5683 3.34337 21.4983 3.33337 20.27V19.7267C3.34337 18.4983 3.42671 13.4267 4.09337 10.8283C4.51671 9.18667 5.75504 7.895 7.32504 7.46C9.83004 6.76167 17.7084 6.67667 19.5917 6.66667H20.4067ZM16.665 14.1667V25.8333L26.665 20L16.665 14.1667Z" fill="#0D0D0D"/>
</svg>
